# xmcd
#
# Track frame offsets: 
#        187
#        10925
#        21417
#        33032
#        42602
#        54310
#        63777
#        79180
#        90682
#        104040
#        113362
#        124622
#        134770
#        146752
#        156682
#
# Disc length: 2268 seconds
#
# Revision: 2
# Processed by: cddbd v1.5.1PL0 Copyright (c) Steve Scherf et al.
# Submitted via: ExactAudioCopy v0.95a5
#
DISCID=cf08da0f
DTITLE=Jim Reeves - Welcome To My World: The Essential Jim Reeves Coll
DTITLE=ection [Disc 2]
DYEAR=1993
DGENRE=Country
TTITLE0=He'll Have To Go
TTITLE1=In A Mansion Stands My Love
TTITLE2=I Missed Me
TTITLE3=A Raiload Bum
TTITLE4=Welcome To My World
TTITLE5=I'm Gonna Change Everything
TTITLE6=Little Ole Dime
TTITLE7=Love Is No Excuse
TTITLE8=Rosa Rio
TTITLE9=I Won't Forget You
TTITLE10=Maureen
TTITLE11=Is It Really Over
TTITLE12=Missing You
TTITLE13=Oh, How I Miss You Tonight
TTITLE14=Have You Ever Been Lonely
EXTD=
EXTT0=
EXTT1=
EXTT2=
EXTT3=
EXTT4=
EXTT5=
EXTT6=
EXTT7=
EXTT8=
EXTT9=
EXTT10=
EXTT11=
EXTT12=
EXTT13=
EXTT14=
PLAYORDER=
